<svg width="103" height="100" viewBox="0 0 103 100" fill="none" xmlns="http://www.w3.org/2000/svg">
<path fill-rule="evenodd" clip-rule="evenodd" d="M15.8985 20.6205C15.8985 20.6205 22.4139 10.9639 35.4239 9.96559V6.46232C21.0138 7.6237 8.53516 19.882 8.53516 19.882C8.53516 19.882 15.6025 40.4046 35.4239 42.2842V38.5593C20.8786 36.7207 15.8985 20.6205 15.8985 20.6205ZM35.4239 31.1537V34.5645C24.4305 32.596 21.3792 21.1175 21.3792 21.1175C21.3792 21.1175 26.6576 15.2439 35.4239 14.292V18.034C35.4169 18.034 35.413 18.0325 35.4068 18.0325C30.8069 17.4773 27.2119 21.7948 27.2119 21.7948C27.2119 21.7948 29.2261 29.0623 35.4239 31.1537ZM35.4239 0V6.46232C35.8468 6.42877 36.2702 6.40185 36.6951 6.38625C53.0783 5.83189 63.7528 19.882 63.7528 19.882C63.7528 19.882 51.4921 34.8567 38.7199 34.8567C37.5496 34.8567 36.4531 34.7475 35.4239 34.5645V38.5593C36.3048 38.6725 37.2164 38.738 38.1683 38.738C50.0546 38.738 58.6503 32.6416 66.9738 25.4252C68.353 26.5355 74.0027 29.2355 75.1652 30.4187C67.2504 37.0726 48.8074 42.4364 38.3517 42.4364C37.3434 42.4364 36.3747 42.3751 35.4239 42.2842V47.898H80.6001V0H35.4239ZM35.4239 14.292V9.96559C35.8418 9.93555 36.2648 9.91331 36.6951 9.89966C48.4761 9.52748 56.2061 20.0673 56.2061 20.0673C56.2061 20.0673 47.8578 31.7132 38.9071 31.7132C37.6176 31.7132 36.464 31.5044 35.4239 31.1537V18.034C40.0105 18.5903 40.9326 20.6256 43.6902 25.2419L49.8231 20.0486C49.8231 20.0486 45.3468 14.1512 37.8005 14.1512C36.979 14.1512 36.1941 14.2093 35.4239 14.292Z" fill="#76B900"/>
<path fill-rule="evenodd" clip-rule="evenodd" d="M102.025 72.4779C102.025 73.215 101.491 73.7101 100.858 73.7101V73.7054C100.209 73.7101 99.6849 73.215 99.6849 72.4779C99.6849 71.7408 100.209 71.2473 100.858 71.2473C101.491 71.2473 102.025 71.7408 102.025 72.4779ZM102.499 72.4779C102.499 71.4657 101.723 70.8782 100.858 70.8782C99.988 70.8782 99.2129 71.4657 99.2129 72.4779C99.2129 73.4893 99.988 74.0785 100.858 74.0785C101.723 74.0785 102.499 73.4893 102.499 72.4779ZM100.586 72.6121H100.762L101.169 73.3374H101.616L101.165 72.583C101.398 72.5661 101.59 72.4531 101.59 72.1355C101.59 71.7408 101.321 71.6137 100.867 71.6137H100.209V73.3374H100.586V72.6121ZM100.586 72.3213V71.9065H100.849C100.992 71.9065 101.188 71.9179 101.188 72.095C101.188 72.2871 101.087 72.3213 100.918 72.3213H100.586Z" fill="black"/>
<path fill-rule="evenodd" clip-rule="evenodd" d="M87.6269 59.4928L90.6919 67.9973H84.4645L87.6269 59.4928ZM84.3422 56.1812L77.2761 74.3352H82.2658L83.3836 71.1263H91.7457L92.8041 74.3352H98.2207L91.101 56.1796L84.3422 56.1812ZM70.1563 74.3415H75.2175V56.1757L70.1548 56.1741L70.1563 74.3415ZM35.0111 56.1741L30.7879 70.5726L26.741 56.1757L21.2789 56.1741L27.0577 74.3415H34.3513L40.1758 56.1741H35.0111ZM55.4745 60.1304H57.6503C60.8065 60.1304 62.8472 61.5672 62.8472 65.2968C62.8472 69.0268 60.8065 70.464 57.6503 70.464H55.4745V60.1304ZM50.4549 56.1741V74.3415H58.6621C63.0347 74.3415 64.4622 73.6033 66.0058 71.9504C67.0968 70.7898 67.802 68.242 67.802 65.4577C67.802 62.9044 67.2051 60.6255 66.1633 59.2071C64.2891 56.67 61.5885 56.1741 57.5563 56.1741H50.4549ZM2.5 56.1489V74.3415H7.60498V60.5279L11.5599 60.5294C12.8702 60.5294 13.8033 60.86 14.4344 61.5424C15.2347 62.407 15.5615 63.8021 15.5615 66.3534V74.3415H20.5081V64.2905C20.5081 57.1166 15.9981 56.1489 11.5867 56.1489H2.5ZM42.3066 56.1741L42.3086 74.3415H47.3685V56.1741H42.3066Z" fill="black"/>
<path d="M0.568184 96.7742L4.61818 86.2742H6.58318L10.6482 96.7742H8.27818L7.52818 94.6592H3.55318L2.80318 96.7742H0.568184ZM4.19818 92.8592H6.88318L5.54818 89.0942L4.19818 92.8592ZM12.0775 96.7742V86.2742H14.2675V96.7742H12.0775ZM19.5554 86.2742H21.9254L23.8604 93.6092L25.7654 86.2742H27.7754L29.6804 93.6092L31.6154 86.2742H33.8654L30.6404 96.7742H28.5854L26.7104 89.7242L24.8354 96.7742H22.7804L19.5554 86.2742ZM37.6239 96.9842C36.9039 96.9842 36.2589 96.8342 35.6889 96.5342C35.1189 96.2342 34.6689 95.7992 34.3389 95.2292C34.0089 94.6492 33.8439 93.9492 33.8439 93.1292V92.6792C33.8439 91.8492 34.0089 91.1492 34.3389 90.5792C34.6689 90.0092 35.1189 89.5742 35.6889 89.2742C36.2589 88.9742 36.9039 88.8242 37.6239 88.8242H37.7289C38.4489 88.8242 39.0939 88.9742 39.6639 89.2742C40.2339 89.5742 40.6839 90.0092 41.0139 90.5792C41.3439 91.1492 41.5089 91.8492 41.5089 92.6792V93.1292C41.5089 93.9492 41.3439 94.6492 41.0139 95.2292C40.6839 95.7992 40.2339 96.2342 39.6639 96.5342C39.0939 96.8342 38.4489 96.9842 37.7289 96.9842H37.6239ZM37.6239 95.1842H37.7289C38.2189 95.1842 38.6189 95.0242 38.9289 94.7042C39.2489 94.3842 39.4089 93.8742 39.4089 93.1742V92.6342C39.4089 91.9342 39.2489 91.4242 38.9289 91.1042C38.6189 90.7842 38.2189 90.6242 37.7289 90.6242H37.6239C37.1339 90.6242 36.7289 90.7842 36.4089 91.1042C36.0989 91.4242 35.9439 91.9342 35.9439 92.6342V93.1742C35.9439 93.8742 36.0989 94.3842 36.4089 94.7042C36.7289 95.0242 37.1339 95.1842 37.6239 95.1842ZM43.0526 96.7742V89.0342H44.8826V90.3542C45.0926 89.9042 45.3576 89.5592 45.6776 89.3192C45.9976 89.0692 46.4326 88.9442 46.9826 88.9442H47.8076V90.8792H47.0576C46.7576 90.8792 46.4626 90.9392 46.1726 91.0592C45.8826 91.1792 45.6376 91.3892 45.4376 91.6892C45.2476 91.9792 45.1526 92.3842 45.1526 92.9042V96.7742H43.0526ZM49.205 96.7742V85.8242H51.305V91.7792L54.095 89.0342H56.675L53.615 91.9592L56.9 96.7742H54.38L52.115 93.2942L51.305 94.0742V96.7742H49.205ZM62.2544 96.9842C61.1544 96.9842 60.3394 96.5942 59.8094 95.8142V96.7742H57.9794V85.8242H60.0794V89.7542C60.5994 89.1342 61.3244 88.8242 62.2544 88.8242H62.3594C62.9894 88.8242 63.5444 88.9742 64.0244 89.2742C64.5144 89.5642 64.8944 89.9992 65.1644 90.5792C65.4444 91.1492 65.5844 91.8492 65.5844 92.6792V93.1292C65.5844 93.9592 65.4444 94.6642 65.1644 95.2442C64.8944 95.8142 64.5144 96.2492 64.0244 96.5492C63.5444 96.8392 62.9894 96.9842 62.3594 96.9842H62.2544ZM61.6844 95.1842H61.8044C62.2844 95.1842 62.6844 95.0242 63.0044 94.7042C63.3244 94.3742 63.4844 93.8592 63.4844 93.1592V92.6642C63.4844 91.9442 63.3244 91.4242 63.0044 91.1042C62.6844 90.7842 62.2844 90.6242 61.8044 90.6242H61.6844C61.4344 90.6242 61.1794 90.6942 60.9194 90.8342C60.6694 90.9642 60.4594 91.1792 60.2894 91.4792C60.1294 91.7692 60.0494 92.1642 60.0494 92.6642V93.1442C60.0494 93.6342 60.1294 94.0292 60.2894 94.3292C60.4594 94.6292 60.6694 94.8492 60.9194 94.9892C61.1794 95.1192 61.4344 95.1842 61.6844 95.1842ZM70.4497 96.9842C69.2697 96.9842 68.3547 96.6492 67.7047 95.9792C67.0547 95.3092 66.7297 94.3642 66.7297 93.1442V92.6942C66.7297 91.4742 67.0597 90.5242 67.7197 89.8442C68.3797 89.1642 69.2897 88.8242 70.4497 88.8242H70.5697C71.6697 88.8242 72.5247 89.1592 73.1347 89.8292C73.7547 90.4892 74.0647 91.4042 74.0647 92.5742V93.5192H68.7997C68.8697 94.7092 69.4197 95.3042 70.4497 95.3042H70.6597C71.4497 95.3042 72.0047 95.0392 72.3247 94.5092L73.8397 95.5142C73.5597 95.9742 73.1397 96.3342 72.5797 96.5942C72.0297 96.8542 71.3947 96.9842 70.6747 96.9842H70.4497ZM68.8147 92.1092H72.0247V92.0642C72.0247 91.0242 71.5397 90.5042 70.5697 90.5042H70.4497C69.4897 90.5042 68.9447 91.0392 68.8147 92.1092ZM75.5429 96.7742V89.0342H77.3729V89.9942C77.6329 89.6242 77.9629 89.3392 78.3629 89.1392C78.7729 88.9292 79.2279 88.8242 79.7279 88.8242H79.8779C80.7579 88.8242 81.4529 89.0992 81.9629 89.6492C82.4829 90.1892 82.7429 90.9642 82.7429 91.9742V96.7742H80.6429V92.2592C80.6429 91.7392 80.5329 91.3392 80.3129 91.0592C80.1029 90.7692 79.7679 90.6242 79.3079 90.6242H79.1879C78.9379 90.6242 78.6929 90.6892 78.4529 90.8192C78.2229 90.9492 78.0279 91.1492 77.8679 91.4192C77.7179 91.6892 77.6429 92.0442 77.6429 92.4842V96.7742H75.5429ZM87.9856 96.9842C86.8256 96.9842 85.9006 96.6542 85.2106 95.9942C84.5306 95.3342 84.1906 94.3792 84.1906 93.1292V92.6792C84.1906 91.8592 84.3456 91.1642 84.6556 90.5942C84.9756 90.0142 85.4206 89.5742 85.9906 89.2742C86.5606 88.9742 87.2256 88.8242 87.9856 88.8242H88.1056C88.8556 88.8242 89.4856 89.0042 89.9956 89.3642C90.5156 89.7242 90.8856 90.1992 91.1056 90.7892L89.4106 91.5092C89.2906 91.2492 89.1206 91.0392 88.9006 90.8792C88.6906 90.7092 88.4256 90.6242 88.1056 90.6242H88.0006C87.4906 90.6242 87.0756 90.7892 86.7556 91.1192C86.4456 91.4392 86.2906 91.9442 86.2906 92.6342V93.1742C86.2906 93.8842 86.4406 94.3992 86.7406 94.7192C87.0506 95.0292 87.4706 95.1842 88.0006 95.1842H88.1056C88.4556 95.1842 88.7456 95.1092 88.9756 94.9592C89.2056 94.8092 89.3856 94.6042 89.5156 94.3442L91.1506 95.1992C90.9306 95.7092 90.5556 96.1342 90.0256 96.4742C89.4956 96.8142 88.8556 96.9842 88.1056 96.9842H87.9856ZM92.5497 96.7742V85.8242H94.6497V89.7392C95.1797 89.1292 95.8747 88.8242 96.7347 88.8242H96.8847C97.7647 88.8242 98.4597 89.0992 98.9697 89.6492C99.4897 90.1892 99.7497 90.9642 99.7497 91.9742V96.7742H97.6497V92.2592C97.6497 91.7392 97.5397 91.3392 97.3197 91.0592C97.1097 90.7692 96.7747 90.6242 96.3147 90.6242H96.1947C95.9447 90.6242 95.6997 90.6892 95.4597 90.8192C95.2297 90.9492 95.0347 91.1492 94.8747 91.4192C94.7247 91.6892 94.6497 92.0442 94.6497 92.4842V96.7742H92.5497Z" fill="#050505"/>
</svg>
